#!OML:ASF H:\Dans Jumps\Project 1\Capture day 1\Session 1\subject.ASF
:FULLY-SPECIFIED
:DEGREES
49
root 0.438513 14.589 4.4454 1.39629 -3.69507 -2.29608
lowerback 14.1968 0.230655 0.930961
upperback 9.4663 0.378995 1.90413
thorax 2.02378 0.164775 1.41878
lowerneck -11.6621 -0.137574 -1.92874
upperneck -7.9266 0.0870642 1.96064
head -0.545338 0.095034 0.926527
rclavicle -2.98177e-016 -7.35503e-015
rhumerus 41.3297 7.21852 -31.9868
rradius 68.049
rwrist 21.9427
rhand -24.1074 -38.0107
rfingers 7.12502
rthumb 2.3736 -67.9772
lclavicle -2.98177e-016 -7.35503e-015
lhumerus 44.4485 -6.82436 36.2079
lradius 65.9617
lwrist 5.97735
lhand -31.9084 -3.28824
lfingers 7.12502
lthumb -5.16025 26.6289
rfemur -43.2107 -11.285 15.0021
rtibia 77.4752
rfoot -31.5215 -5.5243
rtoes -12.6154
lfemur -40.3559 16.7786 -11.7971
ltibia 77.6503
lfoot -30.399 14.3891
ltoes -12.8881
50
root 0.43855 14.5884 4.44603 1.39859 -3.68853 -2.33207
lowerback 14.194 0.222146 0.957659
upperback 9.48742 0.3701 1.9228
thorax 2.04818 0.160872 1.42453
lowerneck -11.9981 -0.116329 -2.28349
upperneck -7.60404 0.169407 2.30065
head -0.391161 0.149053 1.09827
rclavicle -1.49089e-015 1.0138e-014
rhumerus 41.3516 7.20017 -31.974
rradius 68.0588
rwrist 22.0038
rhand -24.3089 -38.2052
rfingers 7.12502
rthumb 2.17901 -68.1738
lclavicle -1.49089e-015 1.0138e-014
lhumerus 44.4957 -6.76585 36.1315
lradius 65.9406
lwrist 6.01883
lhand -31.9133 -3.16516
lfingers 7.12502
lthumb -5.165 26.7519
rfemur -43.2076 -11.2727 15.0462
rtibia 77.4724
rfoot -31.4793 -5.59611
rtoes -12.6227
lfemur -40.3651 16.7943 -11.7549
ltibia 77.656
lfoot -30.3749 14.3931
ltoes -12.9847
51
root 0.439651 14.5892 4.44786 1.3848 -3.67963 -2.29048
lowerback 14.2196 0.219121 0.929359
upperback 9.47819 0.363878 1.91149
thorax 2.02469 0.156867 1.42924
lowerneck -11.9704 -0.112292 -2.31722
upperneck -7.6182 0.179304 2.33041
head -0.40016 0.15489 1.11372
rclavicle 1.0635e-014 0
rhumerus 41.3395 7.21641 -31.9694
rradius 68.0637
rwrist 21.9887
rhand -24.2835 -38.1937
rfingers 7.12502
rthumb 2.20358 -68.1621
lclavicle 1.0635e-014 0
lhumerus 44.4821 -6.77617 36.1348
lradius 65.9574
lwrist 6.02055
lhand -31.9956 -3.36602
lfingers 7.12502
lthumb -5.24452 26.5491
rfemur -43.1836 -11.2945 14.9872
rtibia 77.4733
rfoot -31.5247 -5.55179
rtoes -12.6971
lfemur -40.3314 16.7851 -11.8018
ltibia 77.6462
lfoot -30.4182 14.3424
ltoes -12.8972
52
root 0.439689 14.5887 4.44799 1.40526 -3.68451 -2.29463
lowerback 14.2096 0.224561 0.922856
upperback 9.47866 0.370058 1.92145
thorax 2.03031 0.159364 1.4426
lowerneck -11.9647 -0.119391 -2.30476
upperneck -7.65741 0.167397 2.28689
head -0.413282 0.148299 1.0973
rclavicle 2.78299e-015 3.37934e-015
rhumerus 41.3695 7.21123 -31.9326
rradius 68.0436
rwrist 21.962
rhand -24.3533 -38.2408
rfingers 7.12502
rthumb 2.13617 -68.2099
lclavicle 2.78299e-015 3.37934e-015
lhumerus 44.4518 -6.78332 36.1727
lradius 65.9785
lwrist 5.96231
lhand -32.0345 -3.46619
lfingers 7.12502
lthumb -5.28203 26.448
rfemur -43.2109 -11.2723 14.996
rtibia 77.4778
rfoot -31.5184 -5.55865
rtoes -12.6936
lfemur -40.3598 16.804 -11.7987
ltibia 77.6514
lfoot -30.4191 14.3104
ltoes -12.8603
53
root 0.439825 14.5897 4.44932 1.37406 -3.67006 -2.29465
lowerback 14.2499 0.218204 0.93063
upperback 9.48213 0.363349 1.91965
thorax 2.01293 0.156397 1.43707
lowerneck -11.9689 -0.129394 -2.30494
upperneck -7.65561 0.15384 2.27908
head -0.411741 0.14146 1.09444
rclavicle -2.68359e-015 6.75868e-015
rhumerus 41.3537 7.21354 -31.943
rradius 68.055
rwrist 21.9838
rhand -24.2851 -38.2044
rfingers 7.12502
rthumb 2.20198 -68.1728
lclavicle -2.68359e-015 6.75868e-015
lhumerus 44.4206 -6.78697 36.1779
lradius 66.0217
lwrist 5.93061
lhand -31.9832 -3.40419
lfingers 7.12502
lthumb -5.23255 26.5112
rfemur -43.1532 -11.2818 14.9865
rtibia 77.4696
rfoot -31.5009 -5.5729
rtoes -12.5287
lfemur -40.3134 16.801 -11.7867
ltibia 77.6447
lfoot -30.4451 14.2621
ltoes -12.8155
54
root 0.440176 14.5885 4.4499 1.40632 -3.64824 -2.27968
lowerback 14.2449 0.210848 0.919428
upperback 9.45646 0.353123 1.91942
thorax 1.9882 0.15091 1.44421
lowerneck -11.9306 -0.119616 -2.2902
upperneck -7.68798 0.163808 2.24479
head -0.42839 0.14571 1.08118
rclavicle -1.56046e-014 -4.57205e-015
rhumerus 41.3549 7.23901 -31.9249
rradius 68.0518
rwrist 21.9377
rhand -24.3045 -38.1994
rfingers 7.12502
rthumb 2.18324 -68.1679
lclavicle -1.56046e-014 -4.57205e-015
lhumerus 44.4307 -6.79391 36.1662
lradius 66.0165
lwrist 5.95412
lhand -31.9424 -3.36278
lfingers 7.12502
lthumb -5.19315 26.5536
rfemur -43.1962 -11.299 14.9741
rtibia 77.4826
rfoot -31.5278 -5.56733
rtoes -12.6117
lfemur -40.3636 16.7882 -11.8171
ltibia 77.6572
lfoot -30.4373 14.261
ltoes -12.7492
